<svg width="200" height="200" viewBox="0 0 200 200" fill="none" xmlns="http://www.w3.org/2000/svg">
<rect width="200" height="200" rx="100" fill="#03A5DD"/>
<path d="M164.698 75.0963C164.27 56.8958 148.62 53.4267 148.62 53.4267C148.62 53.4267 136.4 53.3284 120.509 53.2498L132.036 41.9581C132.036 41.9581 133.894 39.6486 130.749 37.0443C127.604 34.445 127.437 35.6046 126.376 36.3269C125.412 36.9805 111.59 50.734 109.123 53.1958C101.497 53.1663 93.5371 53.1466 85.9896 53.1417H92.1956C92.1956 53.1417 75.6167 36.6168 74.5603 35.8896C73.5038 35.1673 73.3318 34.0126 70.187 36.6119C67.0422 39.2162 68.9046 41.5257 68.9046 41.5257L80.7614 53.1417H81.4198C68.2658 53.1516 56.9298 53.2253 51.7261 53.4316C35.0096 58.193 36.297 75.0914 36.297 75.0914C36.297 75.0914 36.5083 111.266 36.2725 129.58C38.0709 147.883 52.0505 150.807 52.0505 150.807C52.0505 150.807 57.6275 150.915 61.6961 150.915C62.1285 152.104 62.4479 157.848 68.7719 157.848C75.0959 157.848 75.8477 150.915 75.8477 150.915C75.8477 150.915 122.145 150.699 126.007 150.699C126.223 152.645 127.186 157.957 133.51 157.844C139.834 157.74 140.262 150.262 140.262 150.262C140.262 150.262 142.404 150.045 148.836 150.262C163.843 147.446 164.698 129.683 164.698 129.683C164.698 129.683 164.486 93.2869 164.698 75.0914V75.0963ZM151.789 133.01C151.789 135.879 149.539 138.208 146.763 138.208H55.495C52.7187 138.208 50.4682 135.879 50.4682 133.01V71.9171C50.4682 69.0475 52.7187 66.7184 55.495 66.7184H146.763C149.539 66.7184 151.789 69.0475 151.789 71.9171V133.01Z" fill="white"/>
<path d="M60.0801 89.7648L86.8747 84.6152L88.9139 94.708L62.3306 99.8576L60.0801 89.7648ZM143.466 89.7648L116.672 84.6152L114.632 94.708L141.216 99.8576L143.466 89.7648ZM88.9139 114.781C88.9139 114.781 94.8103 125.409 101.346 111.346C107.665 125.09 114.632 114.987 114.632 114.987L118.598 117.572C118.598 117.572 111.203 129.487 101.449 120.471C93.1937 129.487 84.5161 117.596 84.5161 117.596L88.9089 114.781H88.9139Z" fill="white"/>
</svg>
