<svg width="200" height="200" viewBox="0 0 200 200" fill="none" xmlns="http://www.w3.org/2000/svg">
<rect width="200" height="200" rx="100" fill="#FF0000"/>
<path d="M31.5845 86.068H20.0529C21.0556 101.129 17.3789 112.547 17.3789 112.547L23.5625 123.892C31.7516 120.382 31.5845 86.068 31.5845 86.068ZM69.0271 86.068H57.4888C57.4888 86.068 57.3217 120.382 65.5175 123.892L71.7011 112.547C71.7011 112.547 68.0243 101.129 69.0271 86.068ZM38.8578 120.576H31.5845C31.5845 129.086 38.7709 129.835 38.7709 129.835H42.4476C49.8278 129.835 50.1353 121.385 50.1353 121.385V71H38.8578V120.576ZM77.6574 96.443H85.1713L79.4423 108.162C79.4423 108.162 76.0998 114.747 81.4478 114.967H93.9286L98.9156 105.902H92.6852C91.8897 105.902 91.375 105.06 91.736 104.351L101.062 86.068H90.2519L89.6101 87.3782H88.8948C88.0993 87.3782 87.5846 86.5359 87.9456 85.8273L95.7135 71H84.9039L75.6519 89.6377C75.6519 89.6377 72.3094 96.2224 77.6574 96.443ZM79.3019 118.624C79.3019 118.624 77.9248 118.751 77.0023 117.828L71.4069 128.625C71.4069 128.625 72.3228 129.881 74.2079 129.881H88.0793L94.0089 118.624H79.3019Z" fill="white"/>
<path d="M121.231 86.0685H128.356V74.5703H102.84V86.0685H110.086V118.985H99.3902L94.0088 129.835H132.04V118.985H121.231V86.0685Z" fill="white"/>
<path d="M154.1 85.7805H158.064C158.289 85.7805 158.512 85.825 158.72 85.9114C158.929 85.9978 159.117 86.1245 159.276 86.2841C159.435 86.4437 159.561 86.6332 159.647 86.8416C159.733 87.05 159.776 87.2732 159.775 87.4985V94.5445H154.1V85.7805ZM172.344 94.5445H171.034V87.1108C171.034 80.1517 165.398 74.5096 158.446 74.5096H154.1V71H143.07V74.5096H136.145V85.7805H143.07V94.5445H132.04V105.815H143.07V129.835H154.1V105.815H169.282C169.999 105.817 170.686 106.103 171.192 106.611C171.698 107.118 171.983 107.806 171.983 108.523V120.362H161.461C161.461 125.596 165.699 129.835 170.927 129.835H173.774C179.002 129.835 183.24 125.596 183.24 120.362V105.454C183.24 99.4312 178.36 94.5445 172.344 94.5445Z" fill="white"/>
<path d="M183.074 80.0386C183.074 77.0237 180.627 74.5703 177.612 74.5703C174.597 74.5703 172.15 77.0237 172.15 80.0386V85.5069H177.612C180.627 85.5069 183.074 83.0602 183.074 80.0386Z" fill="#FF0000"/>
</svg>
