<svg width="200" height="200" viewBox="0 0 200 200" fill="none" xmlns="http://www.w3.org/2000/svg">
<rect width="200" height="200" rx="100" fill="black"/>
<path d="M155.843 88.4713C144.817 88.4713 134.094 84.8988 125.273 78.2904V124.392C125.273 147.934 107.081 167 84.6366 167C62.192 167 44 147.934 44 124.392C44 100.851 62.192 81.7844 84.6366 81.7844C86.881 81.7844 89.0599 81.9807 91.1862 82.3471V106.765C89.1518 105.967 86.9861 105.562 84.8072 105.562C74.7925 105.562 66.6678 114.067 66.6678 124.575C66.6678 135.07 74.7925 143.589 84.8072 143.589C94.8089 143.589 102.934 135.07 102.934 124.575V33H125.601C125.601 50.6006 139.212 64.8643 156 64.8643V88.4582L155.843 88.4713Z" fill="white"/>
</svg>
